<svg width="120" height="48" viewBox="0 0 120 48" fill="none" xmlns="http://www.w3.org/2000/svg">
<path d="M23.8278 36.2884C31.5769 36.2884 37.8587 30.0066 37.8587 22.2575C37.8587 14.5084 31.5769 8.22656 23.8278 8.22656C16.0787 8.22656 9.79688 14.5084 9.79688 22.2575C9.79688 30.0066 16.0787 36.2884 23.8278 36.2884Z" fill="black"/>
<path d="M31.8517 19.4778C31.8446 19.4745 31.8399 19.4729 31.8372 19.4724C31.7862 19.4508 31.7334 19.4354 31.6786 19.4284C31.6796 19.4338 31.6824 19.4364 31.6876 19.4364C31.5882 19.4525 31.5239 19.5359 31.4364 19.5774C31.3373 19.6247 31.2268 19.5915 31.1222 19.6049C31.0061 19.6198 30.8918 19.6831 30.7777 19.7123C30.6598 19.7429 30.5605 19.8013 30.4469 19.8415C30.3669 19.8695 30.2326 19.8704 30.1831 19.7853C30.1689 19.7608 30.1902 19.7313 30.1876 19.7048C30.1827 19.6571 30.1606 19.6041 30.1373 19.5628C30.0763 19.4546 29.9521 19.3876 29.8634 19.304C29.7744 19.2197 29.6892 19.1305 29.5877 19.0607C29.4787 18.9856 29.3801 18.9333 29.3027 18.8214C29.2411 18.7324 29.1932 18.635 29.1241 18.5513C29.0418 18.4523 28.9191 18.4015 28.8378 18.3033C28.7737 18.2262 28.7655 18.1256 28.713 18.0433C28.6606 17.9613 28.5654 17.9325 28.5008 17.8649C28.4617 17.8241 28.4713 17.7478 28.4671 17.6966C28.4414 17.3928 28.2068 17.2305 28.0481 16.9975C27.9927 16.9157 28.0164 16.8304 28.001 16.7389C27.9837 16.6361 27.9145 16.5677 27.8352 16.5058C27.7436 16.4341 27.6575 16.3717 27.5945 16.2715C27.5214 16.1562 27.4661 16.0306 27.4107 15.9062C27.5106 15.8333 27.6517 15.8313 27.6616 15.6777C27.6703 15.542 27.6103 15.3877 27.5572 15.2653C27.4623 15.0478 27.2922 15.0211 27.0799 14.9746C26.9156 14.9391 26.8107 14.8743 26.6471 14.9559C26.5057 15.0266 26.3937 15.077 26.232 15.0554C26.0746 15.0345 25.9245 14.979 25.7717 14.9379C25.7051 14.9197 25.6415 14.9076 25.5808 14.8726C25.5249 14.8405 25.47 14.7997 25.4047 14.7898C25.3328 14.7266 25.1626 14.7673 25.0559 14.7566C25.0543 14.747 25.0392 14.6937 25.0385 14.6848C25.0331 14.6877 25.0273 14.6886 25.0209 14.687C25.0215 14.6513 25.0068 14.6199 25.0016 14.5931C24.8326 14.5248 24.5686 14.5735 24.4793 14.7468C24.4294 14.8435 24.4876 14.9566 24.4372 15.0485C24.3645 15.1812 24.2091 15.1294 24.0976 15.0927C24.0242 15.0095 23.8261 14.9754 23.7415 15.0308C23.7203 15.0324 23.6713 15.0199 23.6397 14.9999C23.6425 14.9807 23.643 14.927 23.6337 14.9105C23.6333 14.9096 23.5964 14.8596 23.5956 14.8819C23.596 14.8685 23.5967 14.8551 23.5973 14.8418C23.5976 14.8371 23.5468 14.8139 23.5405 14.8106C23.524 14.8014 23.5074 14.7939 23.4903 14.7862C23.4533 14.7698 23.4175 14.7506 23.3833 14.7287C23.3442 14.7208 23.3097 14.7036 23.2725 14.6896C23.2323 14.6747 23.1903 14.6654 23.1489 14.6554C23.1013 14.6439 23.0541 14.6326 23.0068 14.6212C22.9307 14.5987 22.8548 14.5719 22.7775 14.5534C22.7187 14.5393 22.6623 14.5411 22.6056 14.5164C22.5976 14.5084 22.5824 14.4945 22.5603 14.4789C22.5189 14.4498 22.514 14.4042 22.5211 14.3579C22.5211 14.3287 22.5308 14.2969 22.5433 14.2709C22.5535 14.2501 22.5674 14.2343 22.5664 14.2095C22.5644 14.1645 22.5253 14.1274 22.5001 14.0933C22.4738 14.0576 22.4575 14.005 22.4429 13.9635C22.4738 13.9259 22.4848 13.8819 22.4824 13.826C22.4824 13.8308 22.4871 13.8344 22.4871 13.8337C22.4792 13.8086 22.4787 13.8096 22.4555 13.7942C22.4468 13.7409 22.3348 13.6434 22.2479 13.6551C22.2174 13.6259 22.2361 13.6355 22.1867 13.6304C22.1516 13.5982 22.1401 13.6015 22.0909 13.5876C22.0613 13.5697 22.0235 13.5628 21.9714 13.5811C21.9252 13.5606 21.8624 13.5951 21.867 13.5991C21.8159 13.6672 21.7297 13.722 21.6431 13.6871C21.6134 13.6852 21.5946 13.6863 21.5655 13.6884C21.5329 13.6386 21.4702 13.6227 21.4076 13.6386C21.3165 13.5668 21.2703 13.6789 21.1848 13.6914C21.0648 13.7093 20.9529 13.6261 20.8309 13.6555C20.8271 13.648 20.8271 13.6402 20.8309 13.6322C20.6728 13.6235 20.3508 13.7633 20.2326 13.8632C20.1572 13.8674 20.038 13.8868 19.95 13.9294C19.9492 13.9215 19.9458 13.9147 19.9402 13.9089C19.8906 13.9278 19.8474 13.9259 19.8008 13.9538C19.7504 13.9422 19.6939 13.9551 19.6485 13.9864C19.6255 13.9875 19.5747 13.9883 19.5457 13.976C19.5107 13.9787 19.4166 13.9696 19.3987 13.9658C19.405 13.9562 19.3633 13.9488 19.3476 13.9488C19.3454 13.9101 19.3488 13.9205 19.3161 13.8761C19.3182 13.8786 19.3205 13.881 19.3222 13.8835C19.3306 13.7582 19.1795 13.7255 19.0842 13.7617C19.0024 13.7928 18.9845 13.904 18.946 13.9725C18.8383 14.1639 18.6598 14.2156 18.4733 14.3027C18.2733 14.3962 18.1014 14.5485 18.0439 14.7677C18.0178 14.8672 18.0281 14.9682 17.9783 15.0612C17.9237 15.1634 17.8401 15.2496 17.7544 15.3264C17.6657 15.406 17.5763 15.4758 17.462 15.5139C17.3429 15.5538 17.2417 15.5945 17.1673 15.7006C17.1006 15.7956 17.0316 15.8745 16.9367 15.9423C16.8494 16.0045 16.7574 16.0608 16.6883 16.1443C16.618 16.2294 16.5736 16.3348 16.5085 16.4245C16.4391 16.5204 16.3635 16.6115 16.291 16.705C16.1616 16.8716 16.0077 17.0679 15.9986 17.2877C16.1884 17.331 16.0654 17.5623 16.0555 17.687C16.0481 17.779 16.0638 17.8707 16.0629 17.9629C16.062 18.0503 16.0388 18.1365 16.0102 18.2187C15.9536 18.382 15.8782 18.5603 15.7809 18.7041C15.7314 18.7775 15.6893 18.8451 15.7146 18.9362C15.7404 19.0297 15.7741 19.1118 15.7884 19.2088C15.8145 19.3885 15.8737 19.5578 15.9951 19.696C16.1249 19.8441 16.2761 19.9718 16.3966 20.1283C16.5206 20.2897 16.5615 20.477 16.6502 20.6558C16.6964 20.7485 16.7587 20.8315 16.8414 20.8943C16.9135 20.9492 16.9953 20.9913 17.0563 21.0596C17.1481 21.1618 17.1989 21.2924 17.3004 21.3873C17.3829 21.4639 17.4817 21.5227 17.5951 21.5358C17.7148 21.5493 17.8344 21.516 17.9471 21.4789C18.0706 21.4378 18.1997 21.4128 18.3291 21.3999C18.4734 21.3854 18.6204 21.3854 18.7638 21.4083C18.8875 21.4281 19.009 21.4652 19.1346 21.471C19.2906 21.4777 19.4074 21.405 19.5515 21.3623C19.6759 21.3253 19.8059 21.3174 19.9339 21.2997C20.084 21.2791 20.1844 21.23 20.3142 21.1577C20.4067 21.1062 20.5115 21.0937 20.5945 21.1689C20.6766 21.2431 20.7532 21.3261 20.8285 21.4073C20.8938 21.4777 20.9678 21.5693 21.0615 21.6026C21.2006 21.6519 21.352 21.6013 21.493 21.6416C21.5936 21.6707 21.6852 21.7456 21.759 21.8172C21.8413 21.897 21.8811 21.9712 21.872 22.0872C21.8634 22.199 21.8307 22.3152 21.8534 22.4268C21.7979 22.5703 21.7019 22.7213 21.7273 22.8814C21.7548 23.0538 21.9119 23.1924 22.0251 23.314C22.2711 23.5774 22.4803 23.8776 22.6535 24.1922C22.6971 24.2712 22.747 24.3478 22.7771 24.4331C22.8077 24.5192 22.7894 24.6106 22.7871 24.6994C22.7833 24.8471 22.8648 24.9615 22.9277 25.0878C23.0867 25.4065 22.7822 25.6329 22.7558 25.9395H22.7392C22.6692 26.0962 22.6068 26.2576 22.5699 26.4253C22.5117 26.6902 22.532 26.9601 22.6471 27.2073C22.7666 27.464 22.9843 27.6447 23.127 27.885C23.2031 28.0123 23.2215 28.1494 23.2343 28.2945C23.2465 28.4373 23.2822 28.5578 23.3213 28.694C23.3599 28.8284 23.3484 28.9698 23.3778 29.1056C23.409 29.2511 23.5003 29.3719 23.5809 29.494C23.6721 29.6322 23.7666 29.7684 23.8626 29.9036C23.9179 29.9817 23.9925 30.0443 24.0449 30.1249C24.1065 30.2197 24.0645 30.2917 24.0358 30.3879C24.0086 30.4797 24.0669 30.561 24.1228 30.6282C24.2367 30.7647 24.4365 30.95 24.6288 30.9442C24.9167 30.9355 25.1612 30.7702 25.4571 30.807C25.6036 30.8253 25.7167 30.8032 25.8417 30.7223C25.9457 30.6551 26.047 30.598 26.1623 30.553C26.2838 30.5053 26.4084 30.4624 26.5198 30.3929C26.6313 30.323 26.7146 30.2218 26.7966 30.1204C26.8919 30.0026 26.9812 29.8798 27.0766 29.7617C27.1576 29.6618 27.2599 29.5711 27.3237 29.4584C27.3956 29.332 27.3638 29.1995 27.385 29.0631C27.4018 28.9529 27.4547 28.8292 27.5293 28.7464C27.6161 28.6503 27.7556 28.6416 27.8529 28.5613C27.9374 28.4919 27.982 28.3828 28.0023 28.278C28.0468 28.0487 27.9728 27.8234 27.9968 27.5954C28.017 27.4009 28.1697 27.2872 28.3094 27.1697C28.5271 26.9866 28.7459 26.7988 28.9955 26.6601C29.1843 26.5551 29.3995 26.459 29.5068 26.2595C29.6448 26.0024 29.5569 25.6896 29.5884 25.4127C29.6038 25.2777 29.6735 25.1219 29.5819 24.9989C29.5244 24.9213 29.4283 24.8864 29.3714 24.8093C29.2784 24.6829 29.3576 24.5375 29.3422 24.3981C29.3294 24.2843 29.2431 24.2047 29.2028 24.1024C29.128 23.9128 29.293 23.6806 29.3966 23.5337C29.5393 23.331 29.7309 23.1742 29.8864 22.9826C29.9722 22.8774 30.0217 22.7522 30.1015 22.6436C30.1743 22.5444 30.2742 22.4737 30.3582 22.3852C30.555 22.1784 30.7106 21.9561 30.9405 21.7809H30.9075C31.0893 21.7652 31.1297 21.5114 31.1747 21.3749C31.2067 21.2781 31.2586 21.2081 31.3248 21.131C31.42 21.0192 31.4498 20.9117 31.4771 20.7702C31.5266 20.5125 31.7612 20.3363 31.8083 20.0805C31.8359 19.9295 31.7717 19.6724 31.9453 19.5903C31.931 19.5366 31.8886 19.5212 31.8517 19.4778Z" fill="#F1CB06"/>
<path d="M31.6906 26.1425C31.6612 26.0996 31.6781 26.0447 31.6815 25.9977C31.6921 25.837 31.6176 25.6061 31.4859 25.5078L31.4361 25.5575C31.1669 25.6606 31.3592 25.7872 31.2206 25.9236C31.2118 25.9101 31.1948 25.8907 31.1843 25.8749C31.0786 25.9149 31.033 26.0163 30.9764 26.1059C30.9011 26.2255 30.7887 26.3234 30.6647 26.3909C30.4973 26.4819 30.2503 26.4802 30.1516 26.6688C30.1243 26.7205 30.14 26.7404 30.1426 26.7936C30.145 26.8464 30.0816 26.8474 30.0639 26.8867C30.0006 27.0271 30.0097 27.1315 30.0552 27.2742C30.1329 27.5185 29.9441 27.6549 29.8304 27.843C29.7706 27.9417 29.7664 28.0172 29.8124 28.1201C29.8621 28.2316 29.79 28.3751 29.7792 28.4905C29.7675 28.6136 29.8112 28.731 29.9223 28.7959C30.0256 28.8561 30.1378 28.8068 30.2381 28.7671C30.3402 28.727 30.429 28.7135 30.5378 28.725C30.6598 28.7379 30.7209 28.6684 30.7628 28.5583C30.8103 28.4343 30.8433 28.322 30.923 28.2129C31.0091 28.095 31.0958 27.9841 31.137 27.8414C31.1672 27.7368 31.1868 27.6308 31.2305 27.5304C31.2771 27.4232 31.3326 27.3203 31.3782 27.2127C31.472 26.9908 31.4827 26.7546 31.511 26.5185C31.553 26.452 31.6252 26.4333 31.6845 26.487C31.7516 26.4179 31.7963 26.3356 31.7674 26.2377C31.7552 26.196 31.714 26.1764 31.6906 26.1425Z" fill="#F1CB06"/>
<path d="M23.7948 40.91C13.6157 40.91 5.35156 32.6459 5.35156 22.4667C5.35156 12.2876 13.6157 4.02344 23.7948 4.02344C33.974 4.02344 42.2381 12.2876 42.2381 22.4667" stroke="black" stroke-width="1.88606" stroke-miterlimit="1.5" stroke-linecap="round" stroke-linejoin="round"/>
<path fill-rule="evenodd" clip-rule="evenodd" d="M6.14909 17.9219H1.84468C0.826587 17.9219 0 18.7485 0 19.7666V26.7713C0 27.7894 0.826587 28.616 1.84468 28.616H6.14909V17.9219Z" fill="black"/>
<path fill-rule="evenodd" clip-rule="evenodd" d="M41.3047 17.9219H45.6091C46.6272 17.9219 47.4538 18.7485 47.4538 19.7666V26.7713C47.4538 27.7894 46.6272 28.616 45.6091 28.616H41.3047V17.9219Z" fill="black"/>
<path d="M23.7947 43.5894C25.2713 43.5894 26.4683 42.3924 26.4683 40.9158C26.4683 39.4392 25.2713 38.2422 23.7947 38.2422C22.3181 38.2422 21.1211 39.4392 21.1211 40.9158C21.1211 42.3924 22.3181 43.5894 23.7947 43.5894Z" fill="black"/>
<path d="M31.969 42.3833C32.8795 42.3833 33.6177 41.6451 33.6177 40.7346C33.6177 39.8241 32.8795 39.0859 31.969 39.0859C31.0585 39.0859 30.3203 39.8241 30.3203 40.7346C30.3203 41.6451 31.0585 42.3833 31.969 42.3833Z" fill="black"/>
<path d="M37.4651 39.0864C38.3756 39.0864 39.1138 38.3483 39.1138 37.4377C39.1138 36.5272 38.3756 35.7891 37.4651 35.7891C36.5545 35.7891 35.8164 36.5272 35.8164 37.4377C35.8164 38.3483 36.5545 39.0864 37.4651 39.0864Z" fill="black"/>
<path d="M41.8635 34.1411C42.7741 34.1411 43.5122 33.403 43.5122 32.4924C43.5122 31.5819 42.7741 30.8438 41.8635 30.8438C40.953 30.8438 40.2148 31.5819 40.2148 32.4924C40.2148 33.403 40.953 34.1411 41.8635 34.1411Z" fill="black"/>
<path d="M51.7412 8.47523V5.61991H65.194V8.47523H60.1792V22H56.756V8.47523H51.7412ZM66.0698 22V9.71493H69.373V11.8584H69.501C69.7249 11.0959 70.1008 10.5201 70.6287 10.1308C71.1566 9.73626 71.7644 9.53897 72.4523 9.53897C72.6229 9.53897 72.8069 9.54964 73.0041 9.57096C73.2014 9.59229 73.3747 9.62162 73.524 9.65894V12.6822C73.3641 12.6342 73.1428 12.5916 72.8602 12.5543C72.5776 12.5169 72.319 12.4983 72.0844 12.4983C71.5831 12.4983 71.1353 12.6076 70.7407 12.8262C70.3514 13.0395 70.0422 13.3381 69.8129 13.722C69.589 14.1059 69.477 14.5484 69.477 15.0497V22H66.0698ZM78.4368 22.2319C77.653 22.2319 76.9545 22.096 76.3413 21.824C75.7282 21.5468 75.2429 21.1389 74.8857 20.6003C74.5338 20.0565 74.3578 19.3793 74.3578 18.5688C74.3578 17.8863 74.4831 17.3131 74.7337 16.8492C74.9843 16.3853 75.3256 16.0121 75.7575 15.7295C76.1894 15.4469 76.6799 15.2336 77.2291 15.0896C77.7837 14.9457 78.3649 14.8444 78.9727 14.7857C79.6872 14.7111 80.2631 14.6418 80.7003 14.5778C81.1375 14.5085 81.4548 14.4071 81.6521 14.2738C81.8494 14.1405 81.948 13.9433 81.948 13.682V13.634C81.948 13.1274 81.788 12.7355 81.4681 12.4583C81.1535 12.181 80.7056 12.0424 80.1244 12.0424C79.5113 12.0424 79.0234 12.1783 78.6608 12.4503C78.2982 12.7169 78.0583 13.0528 77.941 13.458L74.7897 13.2021C74.9497 12.4556 75.2643 11.8104 75.7335 11.2666C76.2027 10.7174 76.8079 10.2961 77.5491 10.0029C78.2955 9.70427 79.1593 9.55497 80.1404 9.55497C80.8229 9.55497 81.4761 9.63495 82.1 9.79491C82.7292 9.95487 83.2864 10.2028 83.7716 10.5387C84.2621 10.8747 84.6487 11.3066 84.9313 11.8344C85.2139 12.357 85.3552 12.9835 85.3552 13.714V22H82.124V20.2964H82.028C81.8307 20.6803 81.5668 21.0189 81.2362 21.3122C80.9056 21.6001 80.5084 21.8267 80.0445 21.992C79.5806 22.152 79.0447 22.2319 78.4368 22.2319ZM79.4126 19.8805C79.9138 19.8805 80.3564 19.7819 80.7403 19.5846C81.1242 19.382 81.4255 19.11 81.6441 18.7688C81.8627 18.4275 81.972 18.0409 81.972 17.609V16.3054C81.8654 16.3747 81.7187 16.4387 81.5321 16.4973C81.3508 16.5506 81.1455 16.6013 80.9163 16.6493C80.687 16.6919 80.4577 16.7319 80.2284 16.7692C79.9991 16.8012 79.7912 16.8306 79.6046 16.8572C79.2047 16.9159 78.8554 17.0092 78.5568 17.1372C78.2582 17.2651 78.0263 17.4384 77.861 17.657C77.6957 17.8703 77.613 18.1369 77.613 18.4568C77.613 18.9207 77.781 19.2753 78.1169 19.5206C78.4582 19.7605 78.8901 19.8805 79.4126 19.8805ZM87.9986 22V9.71493H91.2458V11.8824H91.3898C91.6457 11.1626 92.0723 10.5947 92.6695 10.1788C93.2666 9.76292 93.9811 9.55497 94.8129 9.55497C95.6554 9.55497 96.3726 9.76559 96.9644 10.1868C97.5563 10.6027 97.9509 11.1679 98.1481 11.8824H98.2761C98.5267 11.1786 98.9799 10.616 99.6358 10.1948C100.297 9.76825 101.078 9.55497 101.979 9.55497C103.126 9.55497 104.056 9.92022 104.771 10.6507C105.49 11.3759 105.85 12.405 105.85 13.738V22H102.451V14.4098C102.451 13.7273 102.27 13.2154 101.907 12.8742C101.545 12.5329 101.091 12.3623 100.548 12.3623C99.9291 12.3623 99.4465 12.5596 99.0999 12.9542C98.7533 13.3434 98.58 13.8579 98.58 14.4978V22H95.2768V14.3378C95.2768 13.7353 95.1035 13.2554 94.757 12.8982C94.4157 12.5409 93.9651 12.3623 93.4053 12.3623C93.0267 12.3623 92.6854 12.4583 92.3815 12.6502C92.0829 12.8369 91.8456 13.1008 91.6697 13.442C91.4937 13.778 91.4058 14.1725 91.4058 14.6258V22H87.9986ZM118.763 13.2181L115.644 13.41C115.591 13.1434 115.476 12.9035 115.3 12.6902C115.124 12.4716 114.892 12.2983 114.604 12.1703C114.322 12.037 113.983 11.9704 113.588 11.9704C113.061 11.9704 112.615 12.0824 112.253 12.3063C111.89 12.5249 111.709 12.8182 111.709 13.1861C111.709 13.4794 111.826 13.7273 112.061 13.9299C112.295 14.1325 112.698 14.2952 113.269 14.4178L115.492 14.8657C116.686 15.111 117.577 15.5055 118.163 16.0494C118.75 16.5933 119.043 17.3078 119.043 18.1929C119.043 18.998 118.806 19.7045 118.331 20.3124C117.862 20.9203 117.217 21.3948 116.396 21.7361C115.58 22.072 114.639 22.2399 113.572 22.2399C111.946 22.2399 110.65 21.9014 109.685 21.2242C108.726 20.5417 108.163 19.6139 107.998 18.4408L111.349 18.2649C111.45 18.7608 111.696 19.1393 112.085 19.4006C112.474 19.6566 112.973 19.7845 113.58 19.7845C114.178 19.7845 114.658 19.6699 115.02 19.4406C115.388 19.206 115.575 18.9047 115.58 18.5368C115.575 18.2276 115.444 17.9743 115.188 17.777C114.932 17.5744 114.538 17.4198 114.004 17.3131L111.877 16.8892C110.677 16.6493 109.784 16.2334 109.198 15.6415C108.616 15.0497 108.326 14.2952 108.326 13.3781C108.326 12.5889 108.539 11.9091 108.966 11.3385C109.397 10.768 110.003 10.3281 110.781 10.0189C111.565 9.7096 112.482 9.55497 113.532 9.55497C115.084 9.55497 116.305 9.88289 117.196 10.5387C118.091 11.1946 118.614 12.0877 118.763 13.2181Z" fill="black"/>
<path d="M53.5968 42.6094H51.5173L57.5318 26.2293H59.5793L65.5939 42.6094H63.5144L58.6196 28.8207H58.4916L53.5968 42.6094ZM54.3646 36.2109H62.7466V37.9705H54.3646V36.2109ZM73.3601 30.3243V31.9239H66.7376V30.3243H73.3601ZM68.7212 42.6094V28.6287C68.7212 27.9249 68.8865 27.3384 69.217 26.8691C69.5476 26.3999 69.9769 26.048 70.5047 25.8134C71.0326 25.5788 71.5898 25.4615 72.1763 25.4615C72.6402 25.4615 73.0188 25.4988 73.3121 25.5734C73.6053 25.6481 73.8239 25.7174 73.9679 25.7814L73.424 27.413C73.3281 27.381 73.1948 27.341 73.0241 27.293C72.8588 27.245 72.6402 27.221 72.3683 27.221C71.7444 27.221 71.2939 27.3783 71.0166 27.6929C70.7447 28.0075 70.6087 28.4687 70.6087 29.0766V42.6094H68.7212ZM76.0054 42.6094V30.3243H77.829V32.1799H77.957C78.1809 31.572 78.5861 31.0788 79.1727 30.7002C79.7592 30.3216 80.4204 30.1324 81.1562 30.1324C81.2948 30.1324 81.4681 30.135 81.6761 30.1403C81.884 30.1457 82.0413 30.1537 82.148 30.1643V32.0839C82.084 32.0679 81.9373 32.0439 81.7081 32.0119C81.4841 31.9746 81.2468 31.9559 80.9962 31.9559C80.399 31.9559 79.8658 32.0812 79.3966 32.3318C78.9327 32.5771 78.5648 32.9184 78.2929 33.3556C78.0263 33.7875 77.893 34.2807 77.893 34.8352V42.6094H76.0054ZM84.3854 42.6094V30.3243H86.273V42.6094H84.3854ZM85.3452 28.2768C84.9773 28.2768 84.66 28.1515 84.3934 27.9009C84.1322 27.6503 84.0015 27.349 84.0015 26.9971C84.0015 26.6452 84.1322 26.3439 84.3934 26.0933C84.66 25.8427 84.9773 25.7174 85.3452 25.7174C85.7131 25.7174 86.0277 25.8427 86.289 26.0933C86.5556 26.3439 86.6889 26.6452 86.6889 26.9971C86.6889 27.349 86.5556 27.6503 86.289 27.9009C86.0277 28.1515 85.7131 28.2768 85.3452 28.2768ZM94.721 42.8653C93.5692 42.8653 92.5775 42.5934 91.7457 42.0495C90.9139 41.5056 90.274 40.7565 89.8261 39.802C89.3782 38.8476 89.1543 37.7572 89.1543 36.5308C89.1543 35.2831 89.3836 34.1821 89.8421 33.2276C90.306 32.2678 90.9512 31.5187 91.7777 30.9801C92.6095 30.4363 93.5799 30.1643 94.689 30.1643C95.5528 30.1643 96.3312 30.3243 97.0244 30.6442C97.7176 30.9642 98.2854 31.412 98.728 31.9879C99.1706 32.5638 99.4452 33.2356 99.5518 34.0034H97.6643C97.5203 33.4436 97.2004 32.9477 96.7045 32.5158C96.2139 32.0786 95.5528 31.8599 94.721 31.8599C93.9851 31.8599 93.34 32.0519 92.7854 32.4358C92.2362 32.8144 91.807 33.3503 91.4977 34.0434C91.1938 34.7313 91.0418 35.5391 91.0418 36.4668C91.0418 37.4159 91.1911 38.2424 91.4897 38.9462C91.7937 39.6501 92.2202 40.1966 92.7694 40.5859C93.324 40.9751 93.9745 41.1697 94.721 41.1697C95.2115 41.1697 95.6567 41.0844 96.0566 40.9138C96.4566 40.7432 96.7951 40.4979 97.0724 40.178C97.3497 39.858 97.547 39.4741 97.6643 39.0262H99.5518C99.4452 39.7514 99.1812 40.4046 98.76 40.9858C98.3441 41.5616 97.7922 42.0202 97.1044 42.3614C96.4219 42.6974 95.6274 42.8653 94.721 42.8653ZM105.926 42.8973C105.148 42.8973 104.441 42.7507 103.807 42.4574C103.172 42.1588 102.668 41.7296 102.295 41.1697C101.922 40.6045 101.735 39.922 101.735 39.1222C101.735 38.4184 101.874 37.8478 102.151 37.4106C102.428 36.9681 102.799 36.6215 103.263 36.3709C103.727 36.1203 104.239 35.9336 104.799 35.811C105.364 35.683 105.932 35.5817 106.502 35.5071C107.249 35.4111 107.854 35.3391 108.318 35.2911C108.787 35.2378 109.128 35.1498 109.341 35.0272C109.56 34.9045 109.669 34.6913 109.669 34.3873V34.3234C109.669 33.5342 109.453 32.921 109.022 32.4838C108.595 32.0466 107.947 31.8279 107.078 31.8279C106.177 31.8279 105.47 32.0252 104.959 32.4198C104.447 32.8144 104.087 33.2356 103.879 33.6835L102.087 33.0437C102.407 32.2972 102.834 31.716 103.367 31.3001C103.905 30.8788 104.492 30.5856 105.126 30.4203C105.766 30.2497 106.396 30.1643 107.014 30.1643C107.409 30.1643 107.862 30.2123 108.374 30.3083C108.891 30.399 109.389 30.5882 109.869 30.8762C110.355 31.1641 110.757 31.5987 111.077 32.1799C111.397 32.7611 111.557 33.5395 111.557 34.5153V42.6094H109.669V40.9458H109.573C109.445 41.2124 109.232 41.4976 108.934 41.8016C108.635 42.1055 108.238 42.3641 107.742 42.5774C107.246 42.7907 106.641 42.8973 105.926 42.8973ZM106.214 41.2017C106.961 41.2017 107.59 41.0551 108.102 40.7618C108.619 40.4686 109.008 40.09 109.269 39.6261C109.536 39.1622 109.669 38.6743 109.669 38.1624V36.4348C109.589 36.5308 109.413 36.6188 109.142 36.6988C108.875 36.7734 108.566 36.8401 108.214 36.8987C107.867 36.9521 107.529 37 107.198 37.0427C106.873 37.08 106.609 37.112 106.406 37.1387C105.916 37.2027 105.457 37.3066 105.031 37.4506C104.609 37.5892 104.268 37.7999 104.007 38.0825C103.751 38.3597 103.623 38.7383 103.623 39.2182C103.623 39.874 103.865 40.3699 104.351 40.7058C104.841 41.0364 105.462 41.2017 106.214 41.2017ZM116.378 42.7373C115.983 42.7373 115.645 42.596 115.362 42.3134C115.079 42.0308 114.938 41.6923 114.938 41.2977C114.938 40.9031 115.079 40.5645 115.362 40.2819C115.645 39.9993 115.983 39.858 116.378 39.858C116.772 39.858 117.111 39.9993 117.394 40.2819C117.676 40.5645 117.817 40.9031 117.817 41.2977C117.817 41.559 117.751 41.7989 117.618 42.0175C117.49 42.2361 117.316 42.4121 117.098 42.5454C116.884 42.6734 116.644 42.7373 116.378 42.7373Z" fill="black"/>
</svg>
